<svg width="32" height="30" viewBox="0 0 32 30" fill="none" xmlns="http://www.w3.org/2000/svg">
<path d="M23.7395 3.75C22.6902 3.75 21.6838 4.14509 20.9418 4.84835C20.1998 5.55161 19.783 6.50544 19.783 7.5V22.5C19.783 23.4946 20.1998 24.4484 20.9418 25.1517C21.6838 25.8549 22.6902 26.25 23.7395 26.25C24.7888 26.25 25.7952 25.8549 26.5371 25.1517C27.2791 24.4484 27.696 23.4946 27.696 22.5C27.696 21.5054 27.2791 20.5516 26.5371 19.8483C25.7952 19.1451 24.7888 18.75 23.7395 18.75H7.91352C6.86419 18.75 5.85785 19.1451 5.11586 19.8483C4.37387 20.5516 3.95703 21.5054 3.95703 22.5C3.95703 23.4946 4.37387 24.4484 5.11586 25.1517C5.85785 25.8549 6.86419 26.25 7.91352 26.25C8.96285 26.25 9.9692 25.8549 10.7112 25.1517C11.4532 24.4484 11.87 23.4946 11.87 22.5V7.5C11.87 6.50544 11.4532 5.55161 10.7112 4.84835C9.9692 4.14509 8.96285 3.75 7.91352 3.75C6.86419 3.75 5.85785 4.14509 5.11586 4.84835C4.37387 5.55161 3.95703 6.50544 3.95703 7.5C3.95703 8.49456 4.37387 9.44839 5.11586 10.1517C5.85785 10.8549 6.86419 11.25 7.91352 11.25H23.7395C24.7888 11.25 25.7952 10.8549 26.5371 10.1517C27.2791 9.44839 27.696 8.49456 27.696 7.5C27.696 6.50544 27.2791 5.55161 26.5371 4.84835C25.7952 4.14509 24.7888 3.75 23.7395 3.75Z" stroke="#54BD95" stroke-width="2" stroke-linecap="round" stroke-linejoin="round"/>
</svg>
